<svg width="616" height="810" viewBox="0 0 616 810" fill="none" xmlns="http://www.w3.org/2000/svg">
<g clip-path="url(#clip0_27_21)">
<mask id="mask0_27_21" style="mask-type:luminance" maskUnits="userSpaceOnUse" x="-5" y="0" width="622" height="858">
<path d="M616 0H-4.67688V857.607H616V0Z" fill="white"/>
</mask>
<g mask="url(#mask0_27_21)">
<path d="M177.623 804.478C175.237 801.556 165.635 783.76 156.286 764.932C146.937 746.103 134.244 720.604 128.08 708.268C121.916 695.932 113.186 678.402 108.68 669.312C101.246 654.317 80.5017 612.945 55.4095 563.069C50.1833 552.681 41.9984 536.213 37.2209 526.474C32.4433 516.735 23.888 501.861 18.209 493.421C4.85355 473.571 0.000244141 464.277 0.000244141 458.55C0.000244141 446.088 18.968 428.68 31.8567 429.313C39.5189 429.69 39.87 429.367 47.6208 414.93C51.9809 406.808 62.5587 384.757 71.1271 365.929C120.252 257.979 132.405 212.307 134.359 128.306L135.411 83.1022L153.979 115.321C164.192 133.041 175.028 152.32 178.058 158.164C181.089 164.007 188.186 177.288 193.829 187.676C221.031 237.748 259.31 316.369 274.87 354.124C278.884 363.863 283.163 373.425 284.38 375.373C286.403 378.612 302.45 416.801 323.07 467.45C327.564 478.488 333.913 493.893 337.18 501.684C350.863 534.317 358.066 552.594 358.066 554.683C358.066 555.906 350.909 563.285 342.162 571.08C319.916 590.904 289.784 631.133 268.799 669.028C255.596 692.869 232.135 741.438 233.172 742.784C233.55 743.276 245.196 737.769 259.051 730.547C322.146 697.659 399.184 673.09 459.236 666.704C467.395 665.837 474.99 664.389 476.113 663.487C478.247 661.774 474.768 627.64 463.473 539.46C460.479 516.086 453.49 458.715 447.942 411.967C442.395 365.22 435.881 310.556 433.467 290.492C431.054 270.428 429.381 253.619 429.749 253.14C430.118 252.661 431.738 260.047 433.349 269.553C434.96 279.059 438.25 296.398 440.66 308.085C443.07 319.772 449.691 354.832 455.373 385.997C461.054 417.162 470.836 470.815 477.111 505.226C483.385 539.637 489.78 573.634 491.323 580.776C496.494 604.717 509.446 680.048 508.584 681.167C508.116 681.776 495.528 684.397 480.611 686.992C465.694 689.587 446.946 693.286 438.949 695.212C430.951 697.139 412.548 701.493 398.053 704.888C364.877 712.659 332.707 723.752 303.538 737.48C278.797 749.124 236.34 776.429 219.026 791.83C197.398 811.069 185.881 814.587 177.623 804.478ZM1033.3 741.204C994.423 714.334 972.445 706.311 932.425 704.377C893.969 702.52 869.099 707.266 781.049 733.266C769.27 736.744 759.226 739.062 758.729 738.417C758.232 737.772 759.158 713.46 760.786 684.391C764.791 612.874 763.555 520.693 758.066 481.616C751.53 435.088 740.165 390.962 722.188 342.319L710.409 310.446L720.086 299.096C728.491 289.238 744.113 277.488 754.925 272.893C757.836 271.656 758.114 269.848 757.047 259.085C756.372 252.273 754.693 240.902 753.316 233.815C751.94 226.729 751.084 220.579 751.415 220.15C752.41 218.857 762.6 240.843 769.493 259.152C778.803 283.884 787.594 321.106 794.99 367.109C804.937 428.988 810.078 489.378 814.484 596.123C815.663 624.69 817.122 648.765 817.727 649.623C818.331 650.481 823.324 650.162 828.822 648.915C834.32 647.667 850.27 646.633 864.265 646.616C892.454 646.581 916.937 651.182 952.988 663.282C989.632 675.581 1007.84 675.772 1016.94 663.952C1024.1 654.648 1032.04 632.829 1035.07 614.131C1039.32 587.903 1042.03 526.324 1041.01 479.255C1039.5 409.722 1042.58 448.563 1047.85 565.43C1050.48 623.864 1053.19 673.412 1053.87 675.537C1054.94 678.877 1057.32 677.983 1071.44 668.94C1125.62 634.241 1209.08 623.56 1279.32 642.334C1288.78 644.861 1296.85 646.486 1297.27 645.946C1297.69 645.405 1294.25 625.076 1289.64 600.77C1275.71 527.392 1273.39 503.885 1273.3 435.577C1273.2 357.199 1275.46 339.64 1297.13 250.848C1301.64 232.353 1305.92 216.753 1306.63 216.181C1307.35 215.609 1306.75 225.269 1305.3 237.648C1302.26 263.742 1302.5 264.313 1316.47 264.371C1326.38 264.416 1348.65 271.077 1348.65 274.003C1348.65 276.507 1341.81 291.906 1336.65 301.002C1331.58 309.942 1317.2 351.505 1311.37 374.04C1300.68 415.406 1297.8 477.007 1304.06 530.008C1308.22 565.153 1332.95 688.048 1340.74 712.276C1342.21 716.845 1342.97 721.154 1342.44 721.85C1341.9 722.547 1331.02 719.282 1318.25 714.595C1249.75 689.447 1210.89 682.151 1171.99 687.133C1132.61 692.178 1095.02 714.055 1065.81 748.925C1061.7 753.833 1058.02 757.778 1057.64 757.692C1057.25 757.602 1046.3 750.186 1033.3 741.204ZM1840.76 649.285C1836.25 644.671 1819.41 611.701 1819.41 607.473C1819.41 606.248 1830.32 605.358 1844.4 605.433C1858.15 605.504 1872.5 604.712 1876.3 603.667L1883.2 601.768L1876.3 618.516C1866.81 641.522 1857.87 653.966 1850.83 653.966C1847.81 653.966 1843.28 651.86 1840.76 649.285ZM1529.05 644.002C1526.24 642.241 1524.96 639.354 1524.96 634.772C1524.96 621.3 1521.39 621.809 1672 613.84C1748.37 609.799 1811.42 607.347 1812.12 608.391C1812.81 609.434 1816.81 618.522 1820.99 628.586L1828.59 646.883L1680.86 646.724C1578.62 646.613 1531.88 645.775 1529.05 644.002ZM1872.12 645.63C1872.12 643.944 1886.56 610.782 1888.33 608.416C1889.55 606.779 1960.83 609.936 2119.85 618.669C2144.64 620.031 2166.31 621.823 2168.02 622.653C2175.9 626.493 2177.84 637.549 2171.62 643.208C2168.04 646.461 2150.61 646.883 2019.85 646.883C1938.6 646.883 1872.12 646.319 1872.12 645.63ZM1593.99 597.766C1590.51 594.125 1584.44 588.724 1580.49 585.765C1564.31 573.632 1523.29 557.167 1509.24 557.167C1502.84 557.167 1501.13 556.478 1502.65 554.511C1506.01 550.149 1543.74 536.226 1573.96 528.198C1601.03 521.007 1604.03 520.691 1645.83 520.643C1686.87 520.598 1690.91 520.99 1713.99 527.299C1744.54 535.649 1775.87 549.081 1794.87 561.978C1820 579.035 1831.71 587.891 1834.14 591.693C1836.23 594.977 1835.52 595.167 1827.49 593.463C1822.55 592.413 1791.92 591.583 1759.43 591.619C1703.47 591.681 1665.34 594.555 1620.38 602.104C1601.93 605.203 1600.93 605.04 1593.99 597.766ZM2059.33 596.753C2034.1 592.833 2016.44 592.039 1948 591.747C1903.27 591.556 1866.67 591.126 1866.67 590.791C1866.67 589.677 1898.16 571.263 1913.89 563.177C1971.03 533.807 2039.7 521.138 2099.58 528.92C2128.13 532.631 2175.09 545.535 2184.34 552.21C2185.68 553.18 2180.32 556.228 2171.62 559.438C2152.69 566.42 2125.22 581.9 2111.55 593.29C2099.48 603.343 2101.08 603.238 2059.33 596.753ZM1823.66 563.397C1791.96 529.984 1748.54 496.251 1714.45 478.551C1679.18 460.241 1625.88 441.48 1609.13 441.48H1604.42L1605.59 460.957C1606.24 471.67 1607.24 484.154 1607.81 488.699C1608.75 496.076 1608.24 495.442 1603.03 482.796C1599.83 475.005 1596.24 467.037 1595.05 465.089C1591.49 459.236 1575.92 414.191 1574.69 406.183C1573.62 399.27 1573.86 398.823 1577.88 399.992C1580.26 400.685 1593.26 404.401 1606.75 408.249C1631.58 415.328 1664.03 428.364 1689.37 441.439C1706.7 450.38 1748.24 479.38 1760.34 490.978C1765.34 495.771 1773.92 503.859 1779.4 508.952C1795.78 524.15 1842.39 578.366 1839.11 578.402C1838.45 578.409 1831.5 571.657 1823.66 563.397ZM1874.85 560.043C1922.87 500.33 1948.54 478.57 1992.58 460.256C2014.58 451.106 2038.41 445.278 2078.42 439.259C2096.41 436.553 2113.79 433.887 2117.04 433.335C2120.29 432.784 2122.97 433.062 2123 433.954C2123.05 435.714 2065.98 507.567 2065.27 506.637C2065.03 506.327 2068.54 496.72 2073.06 485.288C2077.59 473.857 2080.93 464.031 2080.49 463.452C2078.19 460.471 2010.24 475.466 1988.16 483.826C1957.01 495.621 1911.04 527.447 1883.8 556.082C1880.15 559.925 1874.88 565.459 1872.1 568.381C1862.35 578.632 1864.05 573.467 1874.85 560.043ZM1835.16 542.261C1832.37 531.631 1828.59 518.683 1826.77 513.489C1802.62 444.6 1787.9 414.938 1759.4 377.692C1741.19 353.909 1714.91 325.792 1710.89 325.792C1706.83 325.792 1696.38 369.168 1692.97 400.163C1691.71 411.666 1691.64 411.786 1690 404.885C1685.63 386.444 1694.43 299.4 1702.23 283.838C1702.41 283.488 1709.53 289.331 1718.06 296.824C1732.33 309.351 1738.18 315.173 1754.96 333.545C1763.73 343.154 1785.08 376.558 1793.77 394.26C1810.68 428.725 1828.4 485.601 1836.65 531.918C1839.39 547.249 1841.31 560.196 1840.93 560.691C1840.55 561.185 1837.95 552.892 1835.16 542.261ZM1857.79 541.821C1857.6 520.322 1861.91 481.464 1867.5 454.173C1872.65 429.002 1888.04 387.002 1900.47 364.137C1912.34 342.323 1936.7 310.052 1958.24 287.622L1976.21 268.917L1979.19 275.515C1986.31 291.309 1994.56 337.032 1996.58 371.927C1997.18 382.262 1998.07 394.781 1998.55 399.746C1999.82 412.733 1996.39 408.372 1994.86 395.045C1992.92 378.301 1984.05 345.454 1976.61 327.504L1969.98 311.508L1965.13 316.378C1962.46 319.057 1957.41 323.755 1953.91 326.818C1925.95 351.297 1901.21 390.632 1883.1 439.391C1871.57 470.432 1864.83 499.294 1860.55 535.918L1857.94 558.347L1857.79 541.821ZM433.536 537.967C410.896 416.94 388.966 301.513 387.169 293.919C386.247 290.024 383.406 277.629 380.856 266.375C377.279 250.591 374.944 244.521 370.638 239.815C364.673 233.295 355.017 231.747 346.513 235.947C342.463 237.947 341.79 237.42 340.033 230.872C338.955 226.854 338.072 222.727 338.072 221.7C338.072 220.674 345.229 217 353.976 213.535C362.723 210.07 372.963 205.192 376.732 202.696C381.931 199.252 383.752 198.886 384.281 201.18C386.48 210.711 392.084 246.402 402.737 318.709C409.336 363.509 419.468 432.036 425.252 470.992C431.035 509.948 435.5 542.211 435.174 542.689C434.848 543.168 434.111 541.042 433.536 537.967ZM360.305 503.485C357.23 494.703 352.528 480.613 349.857 472.172C330.003 409.443 297.53 321.36 250.533 202.751C241.206 179.213 237.478 174.691 227.403 174.691C222.813 174.691 210.883 178.711 203.404 182.779C201.373 183.884 198.509 181.179 193.793 173.704L187.076 163.055L195.777 157.288C217.198 143.09 226.89 129.601 233.604 104.642C236.075 95.4557 238.334 90.1238 238.909 92.1206C239.459 94.0334 244.486 111.004 250.08 129.832C255.673 148.661 265.058 180.309 270.936 200.161C276.813 220.012 282.841 239.668 284.331 243.838C285.821 248.009 292.875 271.077 300.008 295.1C336.911 419.39 360.095 496.432 363.842 507.226C365.802 512.871 367.066 517.931 366.651 518.471C366.235 519.011 363.38 512.267 360.305 503.485ZM386.46 488.221C383.845 478.745 377.177 453.461 371.642 432.036C360.285 388.074 340.478 312.683 329.151 270.31C324.986 254.727 319.886 233.479 317.818 223.09C313.31 200.446 308.49 189.376 302.252 187.342C298.139 186.001 290.231 187.7 278.872 192.363C275.668 193.678 274.77 192.443 272.839 184.069C271.591 178.658 270.831 173.934 271.15 173.571C271.469 173.209 276.409 169.51 282.128 165.351C289.122 160.266 295.529 152.828 301.698 142.631C306.742 134.293 311.552 127.471 312.385 127.471C313.219 127.471 316.562 141.017 319.815 157.574C323.068 174.13 328.556 200.956 332.01 217.188C335.465 233.42 343.177 270.605 349.148 299.822C355.119 329.039 361.567 359.318 363.476 367.109C365.386 374.9 370.35 398.274 374.507 419.05C378.665 439.827 384.435 467.363 387.33 480.243C390.225 493.123 392.283 504.063 391.904 504.556C391.525 505.048 389.075 497.698 386.46 488.221ZM1031.4 360.679C984.681 280.536 940.591 246.919 856.995 227.698L833.366 222.265L849.077 222.088C895.28 221.565 941.972 234.47 973.408 256.452C993.715 270.652 1002.66 279.329 1021.51 303.134C1030.49 314.477 1037.84 322.627 1037.84 321.244C1037.84 319.861 1045 309.56 1053.75 298.352C1087.2 255.494 1120.39 235.174 1172.35 225.755C1197.38 221.217 1215.97 218.894 1215.97 220.305C1215.97 220.927 1209.63 223.262 1201.88 225.494C1131.43 245.788 1096.25 272.141 1063.34 329.272C1056.59 340.993 1048.83 355.629 1046.1 361.797C1043.37 367.965 1040.56 373.012 1039.86 373.012C1039.16 373.012 1035.36 367.462 1031.4 360.679ZM1376.21 -29.4054C1376.96 -35.9681 1378.13 -60.9926 1378.82 -85.0154C1381.29 -172.166 1372.67 -241.551 1349.63 -319.931C1346.95 -329.021 1343.08 -340.177 1341.01 -344.721C1338.94 -349.266 1335.2 -357.766 1332.7 -363.609C1325.14 -381.297 1315.96 -397.019 1303.47 -413.713C1296.94 -422.441 1292.24 -430.409 1293.01 -431.42C1293.79 -432.431 1305.61 -433.168 1319.27 -433.059C1337.57 -432.912 1346.16 -431.844 1351.91 -428.999L1359.7 -425.138L1358.53 -433.92C1357.88 -438.75 1355.34 -455.299 1352.89 -470.696C1350.44 -486.092 1348.73 -499.071 1349.09 -499.537C1349.45 -500.004 1352.86 -490.062 1356.67 -477.446C1360.48 -464.829 1364.3 -453.383 1365.15 -452.01C1366 -450.637 1371.28 -431.513 1376.9 -409.513C1400.44 -317.22 1403.97 -286.611 1404.04 -174.12C1404.08 -104.207 1404.42 -94.5966 1406.82 -95.8887C1412.89 -99.1725 1453.09 -113.315 1469.82 -118.055C1499.16 -126.367 1513.41 -128.024 1544.95 -126.787C1570.05 -125.803 1579.09 -124.377 1600.37 -118.046C1614.36 -113.885 1629.35 -108.735 1633.69 -106.601C1640.86 -103.077 1641.89 -101.538 1644.89 -89.7373C1649.79 -70.4761 1657.96 -30.3425 1657.19 -29.3336C1656.82 -28.851 1645.52 -35.7979 1632.09 -44.7711C1591.87 -71.6326 1557.06 -81.9034 1514.96 -79.3249C1490.95 -77.8539 1468.12 -72.5212 1446.8 -63.4052C1432.99 -57.4987 1399.39 -36.8832 1384.92 -25.4443L1374.84 -17.4732L1376.21 -29.4054ZM1661.62 -50.1281C1649.77 -105.234 1643.1 -158.057 1643.1 -196.912C1643.1 -228.565 1652.79 -320.31 1656.66 -325.339C1657.29 -326.163 1657.36 -322.627 1656.81 -317.482C1654.38 -294.753 1652.06 -239.353 1652.3 -209.792C1652.57 -175.584 1655.67 -150.041 1660.97 -138.252C1664.75 -129.843 1674.8 -120.43 1679.99 -120.43C1686.11 -120.43 1708.75 -136.143 1722.17 -149.703C1729.17 -156.773 1741.84 -168.994 1750.34 -176.861C1758.84 -184.728 1767.65 -193.231 1769.91 -195.757L1774.04 -200.351L1766.89 -243.614C1759.08 -290.94 1757.96 -298.366 1750.84 -350.624C1743.88 -401.678 1743.92 -453.903 1750.97 -495.823C1756.99 -531.701 1765.14 -571.562 1770.98 -593.803C1773.37 -602.893 1778.82 -623.889 1783.11 -640.461C1787.39 -657.033 1791.24 -670.142 1791.66 -669.591C1792.08 -669.04 1789.91 -653.572 1786.84 -635.217C1779.28 -590.174 1779.2 -591.183 1789.87 -599.727C1802.11 -609.517 1817.09 -613.876 1838.42 -613.845L1856.67 -613.819L1850.79 -607.798C1842.8 -599.62 1824.95 -570.484 1819.07 -556.028C1813.33 -541.918 1806.18 -513.525 1801.82 -487.56C1796.6 -456.397 1797.44 -395.175 1803.71 -350.624C1810.39 -303.232 1818.88 -260.752 1826.47 -236.785C1828.44 -230.575 1833.9 -212.744 1838.6 -197.162C1846.04 -172.54 1861.61 -130.877 1869.78 -113.733C1871.23 -110.698 1872.14 -107.879 1871.81 -107.467C1871.48 -107.055 1850.35 -105.548 1824.86 -104.118C1769.41 -101.007 1752.62 -97.1932 1730.3 -82.6385C1710.43 -69.6811 1701.73 -61.8823 1684.36 -41.473C1676.56 -32.309 1669.54 -24.5172 1668.76 -24.1579C1667.98 -23.7986 1664.77 -35.485 1661.62 -50.1281ZM479.275 -108.272C477.509 -163.473 471.167 -204.883 458.094 -246.574C448.912 -275.853 442.13 -291.577 429.149 -313.675C415.987 -336.081 417.219 -334.35 403.506 -349.726C383.651 -371.988 359.243 -385.921 324.568 -394.788L311.972 -398.009L325.733 -406.726C342.034 -417.051 380.189 -435.775 389.6 -438.069C393.249 -438.958 396.235 -440.383 396.235 -441.235C396.235 -442.087 392.759 -447.649 388.51 -453.596C374.847 -472.719 359.627 -495.823 360.693 -495.823C361.909 -495.823 388.757 -471.258 405.416 -454.901C437.406 -423.493 466.34 -379.88 483.134 -337.756C500.221 -294.9 507.872 -253.944 510.095 -193.436L511.305 -160.517L526.019 -179.446C543.596 -202.057 549.207 -207.172 571.2 -220.63C595.653 -235.593 611.41 -239.675 644.336 -239.578C676.249 -239.483 693.188 -235.519 720.281 -221.804C754.717 -204.372 777.037 -185.651 797.864 -156.731C807.642 -143.153 809.607 -141.38 811.342 -144.57C855.678 -226.119 889.97 -275.203 930.388 -314.965C945.939 -330.263 976.684 -356.526 979.042 -356.526C979.579 -356.526 982.024 -358.577 984.477 -361.083C992.292 -369.068 1071.15 -410.848 1073.25 -408.117C1073.61 -407.66 1063.15 -399.849 1050.03 -390.76C1036.9 -381.67 1022.97 -370.307 1019.09 -365.509L1012.02 -356.784L1019.29 -345.44C1023.28 -339.202 1029.56 -327.933 1033.23 -320.399C1040.41 -305.645 1052.72 -273.537 1051.7 -272.212C1051.36 -271.768 1039.71 -269.251 1025.83 -266.62C997.401 -261.232 958.915 -248.874 938.111 -238.453C913.987 -226.369 890.242 -205.222 867.9 -175.924C856.904 -161.504 843.055 -140.728 837.125 -129.755C831.196 -118.783 824.75 -107.464 822.801 -104.602L819.258 -99.3988L805.409 -109.178C797.793 -114.556 788.699 -121.225 785.2 -123.998C779.516 -128.502 758.379 -141.553 733.759 -155.759C711.447 -168.634 681.662 -177.093 658.641 -177.093C618.876 -177.093 576.186 -155.188 516.196 -104.004C505.7 -95.0478 493.347 -84.5621 488.747 -80.7022L480.382 -73.6842L479.275 -108.272ZM665.239 -373.095C633.106 -410.689 591.006 -435.79 528.919 -454.368C513.169 -459.081 511.223 -460.108 517.781 -460.244C537.034 -460.643 581.434 -449.322 607.076 -437.474C620.283 -431.372 652.097 -409.467 658.239 -402.247C660.989 -399.015 663.606 -401.756 687.333 -432.721C723.782 -480.29 750.699 -505.552 782.066 -521.632C797.517 -529.552 805.146 -531.426 793.163 -524.357C755.696 -502.257 692.581 -416.388 679.644 -369.913C678.317 -365.148 676.782 -361.282 676.234 -361.323C675.685 -361.365 670.737 -366.662 665.239 -373.095ZM1653.87 -408.794C1635.63 -442.421 1613.13 -472.079 1591.57 -490.905C1561.04 -517.577 1529.06 -528.727 1481.93 -529.129C1468.98 -529.239 1460.02 -530.177 1461.4 -531.279C1467.12 -535.871 1495.56 -538.824 1522.86 -537.66C1547.86 -536.594 1553.3 -535.607 1567.69 -529.536C1596.53 -517.363 1611.99 -505.169 1634.99 -476.451L1655.51 -450.822L1656.8 -458.567C1663.49 -498.972 1698.94 -554.131 1737.62 -584.324C1739.12 -585.495 1734.28 -578.013 1726.86 -567.699C1710.89 -545.473 1693.59 -515.808 1687.5 -500.194C1680.2 -481.488 1667.11 -438.219 1663.94 -422.296C1659.57 -400.356 1658.92 -399.492 1653.87 -408.794Z" fill="white"/>
</g>
<path fill-rule="evenodd" clip-rule="evenodd" d="M60.6777 473.588C100.834 419.819 132.785 356.204 154.054 279.776L161.598 213.859C184.622 304.549 197.828 270.778 215.573 294.537C144.304 396.517 112.14 467.983 75.0189 543.205C73.8162 524.903 74.632 509.37 60.6777 473.588Z" fill="#008080"/>
<path fill-rule="evenodd" clip-rule="evenodd" d="M70.9268 569.122C165.169 732.783 147.233 715.189 179.503 778.716C187.942 796.006 196.814 798.699 205.893 794.386C210.92 791.562 215.946 784.098 220.973 763.045C222.777 744.709 219.698 725.796 227.759 708.198L330.303 556.389L248.871 334.063L172.717 175.399L150.097 128.387L138.787 219.472L85.2529 383.034C78.5952 406.154 72.0457 426.546 47.5531 445.716C38.287 448.749 30.4147 451.178 18.1469 455.51C9.46447 458.859 1.6698 462.242 10.6068 466.284C13.7442 467.5 45.0548 523.609 70.9268 569.122Z" stroke="#008080" stroke-width="1.5222"/>
<path fill-rule="evenodd" clip-rule="evenodd" d="M82.0812 494.795C82.2926 494.521 82.2825 494.245 82.0867 494.003C79.5568 490.892 77.0494 487.774 74.5602 484.591C74.3623 484.338 74.1696 484.359 73.9792 484.649C73.9937 484.668 73.6705 484.254 73.6849 484.273C74.3011 483.337 74.8993 482.384 75.5156 481.449C75.5245 481.46 75.8098 481.821 75.8197 481.833C75.6269 482.132 75.6312 482.409 75.8313 482.663C78.3644 485.878 80.8934 489.01 83.4485 492.141C83.6518 492.39 83.8571 492.371 84.0654 492.083C84.0584 492.075 84.3763 492.466 84.3698 492.458C84.3769 492.448 82.3797 495.181 82.3859 495.17C82.3797 495.162 82.0878 494.803 82.0812 494.795ZM86.0673 489.295C86.2132 489.088 86.1957 488.874 86.0304 488.671C83.1259 485.136 82.5013 484.409 79.6108 480.789C79.4387 480.574 79.2837 480.573 79.144 480.784C79.1281 480.763 78.8536 480.42 78.8358 480.397C79.4146 479.528 79.9751 478.64 80.5359 477.753C80.1192 477.235 81.2705 478.667 80.852 478.146C80.8057 478.242 80.8081 478.321 80.8567 478.382C80.9226 478.462 81.1582 478.517 81.5878 478.569C84.2173 478.984 86.3857 479.284 89.0221 479.616C87.1241 477.347 86.0793 476.079 84.1566 473.726C83.9748 473.503 83.8022 473.518 83.6429 473.774C83.692 473.834 83.2644 473.31 83.3152 473.372C83.8135 472.595 84.294 471.8 84.7924 471.023C84.8087 471.043 85.1096 471.408 85.1277 471.43C84.9818 471.664 85.0024 471.895 85.1864 472.119C87.4923 474.926 89.7062 477.561 91.9636 480.262C92.1438 480.477 92.3132 480.474 92.4699 480.248C92.4699 480.247 92.7953 480.638 92.7953 480.638C92.8019 480.629 91.0927 483.061 91.1005 483.052C91.1005 483.052 90.779 482.664 90.779 482.664C90.8392 482.579 90.8429 482.503 90.7763 482.425C90.7269 482.365 90.6068 482.332 90.3977 482.308C90.1964 482.271 89.9749 482.239 89.7183 482.202C86.9137 481.816 84.8187 481.528 82.0268 481.075C84.1313 483.678 84.9549 484.65 87.0671 487.213C87.2415 487.424 87.4151 487.408 87.5887 487.162C87.5819 487.153 87.909 487.552 87.9007 487.542C87.9055 487.535 86.3682 489.676 86.3723 489.669C86.3663 489.661 86.0739 489.303 86.0673 489.295ZM94.6166 463.004C94.6169 463.004 94.3139 463.096 94.314 463.095C94.1974 462.909 94.1358 462.812 94.1225 462.797C94.0059 462.66 93.8207 462.604 93.5728 462.634C93.3134 462.649 93.0308 462.736 92.7283 462.896C92.4191 463.048 92.1249 463.286 91.824 463.59C91.5255 463.87 91.2567 464.195 91.0171 464.567C90.6999 465.084 90.4608 465.641 90.2911 466.232C90.1056 466.802 90.037 467.411 90.0654 468.04C90.0794 468.651 90.2049 469.275 90.4391 469.909C90.6716 470.541 91.0493 471.168 91.569 471.784C92.0889 472.4 92.5972 472.811 93.0973 473.022C93.5842 473.217 94.0518 473.28 94.4996 473.212C94.9444 473.115 95.3553 472.916 95.7343 472.616C96.1232 472.324 96.4386 471.971 96.702 471.577C97.0926 470.989 97.4309 470.394 97.7067 469.785C98.0023 469.168 98.1677 468.488 98.2487 467.789C97.8014 467.27 97.4796 466.897 97.0342 466.38C97.0386 466.373 95.6311 468.551 95.6351 468.543C95.5358 468.695 95.4812 468.863 95.4822 469.056C95.4659 469.232 95.5247 469.421 95.6516 469.618C95.6517 469.618 95.4113 469.992 95.4114 469.991C94.7366 469.203 94.1358 468.5 93.4573 467.701C93.4574 467.701 93.6961 467.328 93.6962 467.328C93.8464 467.455 93.9692 467.479 94.0789 467.413C94.178 467.337 94.2909 467.236 94.3819 467.077C95.2784 465.698 96.1569 464.302 97.0372 462.907C97.0394 462.91 97.389 463.315 97.3924 463.319C97.3652 463.513 97.3638 463.663 97.4056 463.785C97.4472 463.907 97.535 464.046 97.6586 464.19C98.1666 464.778 99.001 465.74 99.5099 466.329C99.6273 466.465 99.7216 466.549 99.7925 466.58C99.8514 466.575 99.9574 466.534 100.111 466.46C100.106 466.454 100.351 466.738 100.346 466.732C100.335 466.946 100.311 467.282 100.267 467.735C100.221 468.157 100.116 468.65 99.9627 469.221C99.8153 469.773 99.6099 470.378 99.3345 471.023C99.0386 471.64 98.6739 472.281 98.2305 472.934C97.6241 473.803 97.0022 474.494 96.3442 474.99C95.6871 475.455 95.0133 475.716 94.3249 475.777C93.6493 475.825 92.9716 475.682 92.2939 475.348C91.6145 474.988 90.9513 474.423 90.3037 473.652C89.6557 472.88 89.1584 472.063 88.8126 471.204C88.4619 470.315 88.2532 469.407 88.1887 468.485C88.1183 467.529 88.1995 466.576 88.4379 465.63C88.672 464.647 89.0572 463.697 89.6014 462.78C89.9301 462.227 90.2733 461.796 90.6216 461.478C90.9706 461.158 91.2976 460.906 91.5933 460.714C91.9031 460.512 92.1616 460.361 92.378 460.269C92.5961 460.179 92.735 460.082 92.7941 459.978C92.8636 459.861 92.9109 459.768 92.9358 459.698C92.9359 459.6 92.9281 459.467 92.9122 459.3C92.9117 459.3 93.1822 459.168 93.1819 459.168C93.6704 460.45 94.1627 461.757 94.6166 463.004ZM102.356 452.955C103.299 451.396 103.335 450.117 102.425 449.092C102.059 448.68 101.655 448.549 101.22 448.703C100.78 448.825 100.324 449.295 99.8505 450.116C99.1292 451.364 98.404 452.609 97.6708 453.846C99.2229 455.624 98.5509 454.855 100.103 456.632C100.116 456.611 102.344 452.977 102.356 452.955ZM98.1976 448.174C99.005 446.72 99.8678 445.842 100.804 445.536C101.726 445.211 102.746 445.667 103.808 446.855C104.211 447.305 104.515 447.782 104.724 448.29C104.933 448.797 105.068 449.317 105.129 449.85C105.186 450.35 105.187 450.841 105.132 451.323C105.063 451.788 104.96 452.227 104.824 452.642C106.182 452.958 107.955 453.351 109.313 453.668C109.559 453.723 109.759 453.714 109.937 453.665C110.118 453.591 110.27 453.472 110.434 453.35C110.57 453.502 110.691 453.641 110.82 453.787C110.849 453.741 108.428 457.478 108.457 457.432C108.34 457.296 108.206 457.145 108.079 457C108.211 456.797 108.212 456.621 108.089 456.48C107.954 456.326 107.657 456.194 107.215 456.101C105.589 455.692 105.222 455.606 103.597 455.197C103.609 455.178 101.568 458.417 101.598 458.414C102.472 459.41 103.616 460.709 104.487 461.71C104.587 461.827 104.706 461.883 104.819 461.855C104.933 461.801 105.008 461.718 105.062 461.623C105.179 461.759 105.306 461.904 105.428 462.045C105.443 462.023 103.456 465.019 103.47 464.995C103.353 464.858 103.231 464.717 103.11 464.577C103.284 464.314 103.265 464.06 103.073 463.836C101.448 461.961 97.0967 456.974 95.4719 455.099C95.2568 454.851 95.0684 454.864 94.9094 455.138C94.9183 455.149 94.5091 454.679 94.5175 454.688C95.7564 452.527 96.981 450.354 98.1976 448.174ZM110.885 431.723C110.557 431.372 110.234 431.485 109.921 432.063C108.715 434.278 107.509 436.494 106.301 438.712C107.082 439.564 107.948 440.514 108.677 441.314C108.7 441.275 111.011 437.26 111.034 437.22C111.209 436.913 111.321 436.669 111.369 436.486C111.399 436.285 111.338 436.1 111.156 435.903C111.156 435.902 111.433 435.411 111.434 435.411C112.04 436.066 113.331 437.461 113.937 438.117C113.938 438.116 113.618 438.658 113.618 438.657C113.477 438.416 113.338 438.383 113.191 438.548C113.025 438.692 112.848 438.954 112.642 439.316C112.671 439.267 110.338 443.216 110.366 443.167C111.15 444.026 112.213 445.191 112.986 446.042C113.104 445.85 117.009 439.479 117.127 439.286C117.259 439.069 117.325 438.841 117.342 438.617C117.34 438.375 117.269 438.178 117.126 438.024C117.127 438.022 117.422 437.532 117.423 437.53C118.223 438.392 119.063 439.301 119.871 440.192C119.872 440.19 119.565 440.683 119.566 440.68C119.43 440.529 119.303 440.512 119.198 440.639C119.097 440.771 118.972 440.938 118.845 441.161C119.205 440.578 112.486 451.237 112.853 450.662C112.717 450.509 112.59 450.366 112.459 450.22C112.512 450.137 112.544 450.03 112.557 449.902C112.556 449.757 112.478 449.601 112.373 449.482C111.716 448.75 104.932 441.255 103.921 440.15C103.784 440 103.674 439.949 103.575 439.98C103.458 439.991 103.375 440.039 103.326 440.124C103.171 439.956 103.024 439.795 102.871 439.629C104.585 436.424 106.261 433.189 107.929 429.951C108.234 429.367 108.211 428.891 107.861 428.527C107.862 428.527 108.125 428.015 108.125 428.014C109.193 429.123 110.229 430.221 111.177 431.233C111.178 431.232 110.905 431.743 110.905 431.742L110.885 431.723ZM124.305 427.24C124.668 426.623 124.984 425.999 125.238 425.358C125.476 424.696 125.607 424.032 125.604 423.344C125.582 422.634 125.396 421.901 125.041 421.142C124.681 420.344 124.068 419.5 123.18 418.587C122.291 417.672 121.491 417.064 120.817 416.795C120.134 416.485 119.534 416.405 119.029 416.565C118.505 416.704 118.064 417.034 117.704 417.558C117.313 418.049 116.961 418.619 116.627 419.254C116.647 419.214 114.551 423.241 114.573 423.203C116.299 424.997 120.687 429.619 122.021 431.034C122.284 430.596 124.033 427.67 124.305 427.24ZM121.351 435.895C121.614 435.464 121.627 435.119 121.387 434.861C119.907 433.268 114.028 427.025 111.954 424.87C111.665 424.571 111.401 424.644 111.171 425.097C110.996 424.915 110.818 424.731 110.639 424.546C112.05 421.728 113.44 418.895 114.813 416.05C115.414 414.799 116.13 413.932 116.993 413.454C117.847 412.965 118.748 412.774 119.678 412.866C120.597 412.912 121.524 413.209 122.433 413.737C123.337 414.226 124.168 414.856 124.929 415.633C125.69 416.408 126.342 417.274 126.894 418.239C127.429 419.186 127.801 420.202 128.018 421.293C128.218 422.364 128.231 423.493 128.059 424.674C127.888 425.849 127.447 427.029 126.739 428.209C125.1 430.94 123.443 433.654 121.783 436.364C121.646 436.214 121.494 436.05 121.351 435.895ZM132.748 416.759C132.949 416.412 133.066 416.151 133.088 415.965C133.093 415.761 133.017 415.579 132.88 415.438C130.91 413.421 124.982 407.442 121.987 404.53C121.799 404.347 121.635 404.289 121.499 404.357C121.336 404.399 121.166 404.599 120.989 404.959C120.774 404.75 120.555 404.539 120.334 404.326C121.147 402.557 121.957 400.788 122.759 399.013C122.992 399.234 123.223 399.453 123.451 399.67C123.154 400.337 123.183 400.838 123.547 401.189C126.685 404.207 132.669 410.193 134.696 412.252C134.969 412.529 135.286 412.358 135.646 411.73C135.804 411.892 135.979 412.069 136.146 412.24C136.074 412.364 133.303 417.134 133.232 417.259C133.074 417.096 132.909 416.925 132.748 416.759ZM136.137 381.391C135.629 380.925 135.173 381.096 134.793 381.919C134.331 382.925 130.873 390.336 130.399 391.333C131.638 392.5 132.829 393.64 133.892 394.664C133.798 394.848 136.904 388.701 136.81 388.885C137.029 388.452 137.167 388.112 137.224 387.864C137.264 387.599 137.154 387.344 136.895 387.1C136.894 387.102 137.239 386.399 137.237 386.401C138.417 387.51 139.68 388.707 140.718 389.693C140.717 389.695 140.313 390.451 140.312 390.453C140.126 390.161 139.936 390.133 139.749 390.373C139.54 390.593 139.305 390.956 139.044 391.464C138.989 391.571 136.26 396.792 136.201 396.895C137.296 397.956 138.605 399.227 139.648 400.248C141.401 397.072 143.136 393.88 144.869 390.69C145.036 390.381 145.132 390.082 145.139 389.776C145.128 389.453 145.038 389.212 144.85 389.033C144.85 389.035 145.226 388.331 145.225 388.332C146.266 389.317 147.373 390.371 148.443 391.41C148.443 391.41 148.057 392.107 148.057 392.107C147.869 391.924 147.711 391.929 147.575 392.114C147.447 392.305 147.298 392.554 147.128 392.862C146.883 393.305 139.823 405.884 139.573 406.323C139.396 406.145 139.228 405.976 139.058 405.806C139.124 405.689 139.155 405.537 139.169 405.366C139.147 405.161 139.072 404.994 138.927 404.85C136.787 402.718 130.638 396.684 127.178 393.436C126.968 393.239 126.793 393.164 126.657 393.213C126.483 393.225 126.382 393.306 126.317 393.42C126.075 393.195 125.83 392.966 125.58 392.735C127.601 388.166 129.579 383.579 131.527 378.972C131.889 378.141 131.772 377.457 131.172 376.932C131.174 376.929 131.478 376.2 131.48 376.197C133.335 377.819 135.008 379.328 136.48 380.678C136.478 380.683 136.139 381.387 136.137 381.391ZM150.593 384.91C150.855 384.425 150.819 384.024 150.511 383.734C148.164 381.525 141.372 375.213 136.962 371.343C136.476 370.917 136.116 370.953 135.902 371.462C135.604 371.202 135.299 370.937 134.988 370.667C134.439 372.022 138.142 362.946 137.595 364.298C137.924 364.579 138.248 364.855 138.564 365.126C138.496 365.344 138.554 365.534 138.698 365.657C138.866 365.802 139.476 365.889 140.472 365.873C146.42 365.997 151.047 365.312 155.719 364.291C153.236 362.088 148.667 358.021 144.189 354.284C143.621 353.811 143.198 353.879 142.945 354.5C142.595 354.21 142.24 353.916 141.874 353.616C142.64 351.684 143.4 349.75 144.159 347.816C144.544 348.127 144.92 348.433 145.286 348.732C145.046 349.3 145.245 349.845 145.83 350.327C151.191 354.749 158.772 361.449 161.144 363.562C161.485 363.866 161.799 363.744 162.086 363.193C162.292 363.377 162.501 363.563 162.709 363.75C162.685 363.795 159.66 369.59 159.636 369.634C159.431 369.447 159.227 369.262 159.026 369.079C159.134 368.871 159.125 368.709 159.015 368.609C158.923 368.526 158.685 368.53 158.313 368.63C157.949 368.697 157.537 368.776 157.063 368.872C152.239 369.911 147.928 370.86 142.289 371.089C145.259 373.749 150.321 378.397 152.351 380.29C152.671 380.588 152.989 380.45 153.3 379.869C153.495 380.05 153.689 380.232 153.886 380.417C153.863 380.461 151.184 385.406 151.16 385.449C150.969 385.267 150.78 385.088 150.593 384.91ZM168.673 350.348C168.757 350.183 168.799 349.981 168.815 349.757C168.794 349.501 168.697 349.3 168.514 349.143C166.421 347.353 159.195 341.21 154.522 337.441C154.663 337.145 151.575 344.243 151.706 343.939C151.587 344.196 151.572 344.517 151.624 344.871C151.674 345.221 151.867 345.537 152.177 345.794C152.176 345.795 151.791 346.668 151.79 346.67C149.79 345.006 147.429 343.08 144.692 340.933C144.69 340.936 145.018 340.017 145.035 340.037C145.712 340.567 146.193 340.797 146.514 340.746C146.833 340.694 147.045 340.533 147.149 340.266C149.569 334.02 151.942 327.811 154.318 321.565C154.429 321.272 154.399 320.894 154.222 320.433C154.044 319.97 153.563 319.447 152.744 318.844C152.743 318.846 153.099 317.829 153.098 317.831C156.474 320.309 159.311 322.481 161.661 324.319C161.66 324.32 161.224 325.282 161.241 325.3C160.872 325.011 160.54 324.92 160.26 325.039C159.973 325.153 159.76 325.346 159.636 325.633C156.667 332.516 159.636 325.633 156.668 332.515C161.483 336.346 168.936 342.606 170.963 344.316C171.322 344.619 171.656 344.465 171.965 343.85C172.181 344.032 172.401 344.218 172.622 344.406C171.525 346.576 170.432 348.75 169.33 350.915C169.112 350.726 168.888 350.533 168.673 350.348ZM150.328 301.043C150.499 301.885 150.737 302.532 151.042 302.983C151.383 303.41 152.005 303.958 152.875 304.61C160.155 309.785 165.374 313.883 169.029 316.85C169.311 317.12 169.548 317.203 169.743 317.099C169.922 316.932 170.083 316.698 170.226 316.398C170.235 316.406 170.857 316.892 170.867 316.899C170.779 317.085 168.221 322.493 168.134 322.68C168.144 322.687 167.502 322.178 167.512 322.186C167.65 321.894 167.721 321.623 167.724 321.373C167.728 321.074 167.573 320.826 167.256 320.627C163.652 317.963 158.348 314.078 151.359 309.322C150.502 308.766 149.84 308.448 149.411 308.386C148.995 308.286 148.546 308.424 148.074 308.803C147.624 308.49 147.163 308.172 146.695 307.85C147.414 305.241 148.125 302.634 148.833 300.028C149.336 300.367 149.842 300.713 150.328 301.043ZM181.067 311.39C181.183 311.48 181.286 311.587 181.388 311.72C181.382 311.715 181.739 311.993 181.733 311.988C182.113 312.283 182.643 312.178 183.325 311.67C183.987 311.143 184.677 310.439 185.399 309.561C186.126 308.626 186.797 307.663 187.43 306.693C188.089 305.683 188.561 304.853 188.859 304.232C189.136 303.648 189.461 302.931 189.811 302.054C190.191 301.142 190.508 300.204 190.782 299.26C191.025 298.29 191.167 297.411 191.202 296.627C191.211 295.821 190.994 295.254 190.529 294.908C189.992 294.508 189.317 294.731 188.528 295.588C187.763 296.399 186.927 297.519 186.028 298.951C185.116 300.357 184.144 301.869 183.141 303.508C182.119 305.107 181.081 306.521 179.999 307.708C178.904 308.869 177.764 309.669 176.55 310.066C175.32 310.398 173.974 309.988 172.26 308.684C169.702 306.739 167.541 303.755 166.199 300.055C164.828 296.278 164.601 292.297 166.142 288.25C166.906 286.245 167.852 284.746 169 283.721C170.1 282.604 171.174 281.76 172.209 281.183C173.258 280.611 174.182 280.199 174.979 279.952C175.739 279.623 176.184 279.297 176.316 278.992C176.463 278.636 176.521 278.338 176.445 278.057C176.33 277.751 176.232 277.401 176.149 277.004C176.632 277.015 177.109 277.022 177.58 277.025C180.176 280.195 182.156 283.038 183.708 285.607C183.399 285.906 183.081 286.196 182.766 286.49C182.488 286.347 182.193 286.193 181.877 286.025C181.587 285.875 181.207 285.862 180.735 285.983C179.492 286.24 178.115 287.018 176.655 288.34C175.196 289.657 173.996 291.364 173.037 293.535C172.676 294.365 172.406 295.196 172.234 296.045C172.02 296.86 171.946 297.664 171.994 298.451C172.032 299.228 172.234 299.963 172.579 300.646C172.862 301.281 173.323 301.836 173.934 302.291C174.895 303.006 175.751 303.004 176.595 302.337C177.426 301.6 178.313 300.566 179.261 299.237C180.183 297.862 181.179 296.392 182.276 294.774C183.335 293.11 184.496 291.698 185.73 290.468C186.971 289.232 188.268 288.409 189.55 287.937C190.856 287.421 192.105 287.597 193.192 288.396C194.276 289.193 194.831 290.25 194.998 291.679C195.183 293.048 195.134 294.59 194.85 296.256C194.567 297.92 194.103 299.644 193.437 301.409C192.795 303.122 192.141 304.685 191.464 306.114C190.794 307.535 190.054 308.883 189.239 310.167C188.414 311.371 187.643 312.471 186.909 313.448C186.168 314.357 185.533 315.121 184.999 315.741C184.438 316.335 184.127 316.715 184.052 316.873C183.919 317.147 183.871 317.434 183.917 317.739C183.79 317.815 183.276 318.192 183.156 318.274C182.258 316.355 181.342 314.354 180.337 312.364C180.337 312.364 181.067 311.389 181.067 311.39Z" fill="white"/>
<path d="M314.826 560.405L216.533 372.613L265.306 433.53L314.826 560.405Z" fill="#008080"/>
<path d="M188.694 753.936L227.299 677.368L216.781 709.143L188.694 753.936Z" fill="#008080"/>
<path d="M100.8 495.861L204.91 315.348L164.775 379.859L100.8 495.861Z" fill="#008080"/>
<path d="M97.5187 580.637C91.317 572.061 90.2967 565.509 89.6 554.211C93.4628 560.003 96.1813 561.997 101.742 563.931C109.258 568.937 109.44 575.243 106.493 580.637C104.057 582.583 102.837 583.926 97.5187 580.637Z" fill="#008080"/>
</g>
<defs>
<clipPath id="clip0_27_21">
<rect width="616" height="810" fill="white"/>
</clipPath>
</defs>
</svg>
