<?xml version="1.0" encoding="UTF-8" standalone="no"?>
<!-- Created with Inkscape (http://www.inkscape.org/) -->

<svg
   width="342.86819"
   height="251.81786"
   viewBox="0 0 90.717209 66.626806"
   version="1.1"
   id="svg1"
   xml:space="preserve"
   xmlns="http://www.w3.org/2000/svg"
   xmlns:svg="http://www.w3.org/2000/svg"><defs
     id="defs1" /><g
     id="layer1"
     transform="translate(-39.636978,-61.380219)"><path
       style="fill:#000000"
       d="m 69.804879,127.63484 c -5.223601,-0.94584 -7.96943,-3.15858 -7.96943,-6.4222 0,-1.1065 1.508428,-10.91271 1.709574,-11.11386 0.115668,-0.11567 0.47225,1.12326 0.936259,3.25298 0.158525,0.7276 0.403313,1.75734 0.543973,2.28831 l 0.255744,0.9654 1.253788,-0.38053 c 3.018466,-0.9161 7.708213,-0.70902 13.008682,0.57443 1.42195,0.3443 5.1602,1.40461 8.30722,2.35622 6.142857,1.85752 10.596227,2.86168 14.940861,3.3689 1.49809,0.1749 2.56966,0.4032 2.38125,0.50734 -0.75466,0.41714 -7.623004,0.8407 -11.188644,0.68999 -4.04266,-0.17087 -7.842177,-0.75505 -14.139497,-2.17394 -4.435335,-0.99936 -6.16078,-1.12412 -7.54537,-0.5456 -1.025573,0.42851 -1.468007,1.10073 -1.468007,2.23044 0,1.01541 1.134432,1.99389 2.989109,2.57819 2.653878,0.83608 15.985565,0.79854 21.212935,-0.0597 0.58601,-0.0962 0.69399,-0.0619 0.4022,0.12793 -0.50511,0.32854 -7.725487,1.53007 -11.336967,1.88656 -3.79138,0.37424 -11.914958,0.29989 -14.29368,-0.13083 z m 36.139761,-6.12274 c -0.32446,-0.88833 -2.36178,-2.62385 -4.12493,-3.51389 -6.721424,-3.39296 -15.761971,-5.80914 -25.961344,-6.93842 l -3.042709,-0.33689 1.5875,-0.21636 c 2.193439,-0.29894 10.768182,0.21761 14.730059,0.88735 3.98065,0.67292 8.33383,1.77386 11.311104,2.86064 1.22576,0.44744 2.28941,0.75277 2.36367,0.67851 0.0742,-0.0742 0.14289,-1.59151 0.15252,-3.37169 0.0293,-5.42194 -0.92519,-7.36218 -4.442974,-9.03111 -2.4922,-1.18237 -7.6792,-2.922251 -10.488337,-3.518111 -4.57628,-0.9707 -14.065056,-0.42083 -19.579167,1.134601 -2.724795,0.76862 -4.172639,2.15798 -5.075669,4.87065 l -0.396351,1.19063 -3.944719,-0.0187 c -3.691029,-0.0175 -4.098695,-0.0714 -6.338933,-0.83704 -3.323928,-1.13606 -5.474178,-2.46239 -7.795434,-4.80839 -6.732012,-6.803796 -7.046844,-17.574105 -0.699989,-23.946426 3.154321,-3.166978 5.146545,-3.981445 14.32922,-5.858112 7.534503,-1.539829 10.583275,-2.537709 13.248087,-4.336169 0.644438,-0.434926 1.171705,-0.687687 1.171705,-0.561691 0,0.456035 -2.855684,2.825065 -4.386159,3.638687 -1.988411,1.057069 -6.908861,2.751731 -10.165925,3.501267 -6.505969,1.497195 -9.151167,2.634376 -11.722132,5.039387 -5.438484,5.087435 -5.522812,13.933941 -0.183365,19.236076 2.921882,2.901461 6.218542,4.410121 9.677031,4.428551 1.591696,0.008 2.135879,-0.11965 3.627965,-0.8542 0.965464,-0.4753 1.989881,-1.162291 2.276484,-1.526641 l 0.521095,-0.66247 -1.913386,-1.90559 c -1.256541,-1.25143 -2.240681,-2.54139 -2.866796,-3.757678 -0.906203,-1.760378 -1.798146,-4.290695 -1.798146,-5.101088 0,-0.206159 0.821857,0.688575 1.826349,1.988297 4.182249,5.411459 7.883325,7.464579 13.473953,7.474509 3.750245,0.007 8.533742,-0.52414 9.831822,-1.09097 2.21395,-0.96677 3.65937,-2.963089 3.96337,-5.47395 0.17574,-1.451587 0.19193,-1.476462 0.49207,-0.756137 0.41924,1.006153 0.37254,4.307197 -0.0788,5.573597 l -0.36597,1.02675 1.24035,-0.1469 c 5.587547,-0.66176 9.846667,-5.588934 10.294107,-11.90877 0.0804,-1.135563 0.23427,-1.969001 0.34195,-1.852083 0.29913,0.324786 0.78549,3.518487 0.78109,5.129042 -0.005,1.777915 -0.60857,4.406606 -1.34242,5.845071 -0.30517,0.59817 -1.09414,1.66413 -1.75328,2.36881 -1.45375,1.55417 -1.31134,1.6714 2.04128,1.68033 2.07183,0.006 2.3828,-0.0666 3.948224,-0.91508 1.8734,-1.01546 4.18192,-3.000146 5.3915,-4.635178 l 0.78294,-1.058334 -0.17805,1.176921 c -0.29003,1.917131 -1.6035,4.337591 -3.06862,5.654851 -0.72586,0.65261 -1.31974,1.25596 -1.31974,1.34077 0,0.0848 0.68461,0.49945 1.52135,0.921401 6.87327,3.46605 14.05126,2.62889 18.99,-2.214781 3.19736,-3.13581 4.51087,-6.193585 4.30852,-10.029988 -0.32773,-6.213273 -5.83878,-10.590524 -12.21637,-9.703062 -3.49046,0.485709 -7.17539,2.240197 -9.36235,4.45766 -0.76399,0.774639 -1.38907,1.243155 -1.38907,1.041147 0,-0.505533 0.9029,-3.086244 1.44974,-4.143712 0.43143,-0.834293 0.42574,-0.934677 -0.14126,-2.490478 -1.33563,-3.664911 -3.72163,-6.426696 -7.074284,-8.188464 -2.72043,-1.429545 -4.82815,-1.839221 -8.78628,-1.707783 -3.860157,0.128184 -5.086747,0.500204 -12.032217,3.649304 -7.302451,3.310959 -13.29936,4.976668 -19.453197,5.403345 -2.594361,0.17988 -2.419926,0.03996 1.455208,-1.167309 4.144538,-1.291195 9.937643,-4.307261 16.211574,-8.440237 7.299525,-4.808591 9.277575,-5.542297 14.155902,-5.250758 3.08387,0.184299 4.99728,0.696944 7.99711,2.142599 5.626274,2.711374 9.751984,7.296317 10.707594,11.899462 l 0.29545,1.42317 1.64223,-0.692237 c 1.50465,-0.634244 1.94146,-0.691219 5.2141,-0.680078 3.2643,0.01111 3.74275,0.07681 5.55625,0.762892 3.71269,1.404591 6.12971,3.437374 7.62476,6.412642 1.99186,3.963971 1.79548,8.847206 -0.55897,13.899195 -2.14333,4.598991 -5.29482,7.374691 -9.72749,8.567571 -2.6944,0.72509 -8.98089,0.55883 -11.95289,-0.31611 -0.42856,-0.12616 -0.46407,0.44739 -0.52917,8.54654 -0.0384,4.77498 -0.16362,8.42487 -0.2783,8.11087 z"
       id="path2" /></g></svg>
