<?xml version="1.0" encoding="UTF-8" standalone="no"?>
<!-- Created with Inkscape (http://www.inkscape.org/) -->

<svg
   width="199.67999"
   height="193.55127"
   viewBox="0 0 52.831998 51.210439"
   version="1.1"
   id="svg1"
   xml:space="preserve"
   xmlns="http://www.w3.org/2000/svg"
   xmlns:svg="http://www.w3.org/2000/svg"><defs
     id="defs1" /><g
     id="layer1"
     transform="translate(-69.468688,-102.56504)"><path
       style="fill:#008080;fill-opacity:1"
       d="m 73.363361,153.73202 c -1.017985,-0.16014 -1.81953,-0.42656 -3.069166,-1.02012 l -0.8255,-0.39211 v -24.87737 -24.87738 h 26.416 26.415995 v 22.32 22.31999 l -0.1905,-0.13661 c -1.13072,-0.81087 -1.99493,-1.14789 -3.11226,-1.21368 -1.95509,-0.11512 -3.53451,0.67886 -7.13915,3.5889 -3.67036,2.96309 -4.72017,3.6505 -6.12298,4.00928 -1.74617,0.4466 -3.60673,0.006 -5.46712,-1.29446 -0.879426,-0.61476 -2.133216,-1.71977 -2.845626,-2.50794 -1.647761,-1.82297 -4.359471,-3.697 -6.12407,-4.23227 -3.25382,-0.987 -6.510847,0.3687 -9.625539,4.00653 -2.212375,2.58395 -4.141215,3.88962 -6.3148,4.27461 -0.481284,0.0853 -1.549732,0.10272 -1.995284,0.0326 z"
       id="path1" /></g></svg>
